Coordinates
version=1
nRows=41
nColumns=38
inDegrees=no

Units are S.I. units (second, meters, Newtons, ...)
If the header above contains a line with 'inDegrees', this indicates whether rotational values are in degrees (yes) or radians (no).

endheader
time	pelvis_tilt	pelvis_list	pelvis_rotation	pelvis_tx	pelvis_ty	pelvis_tz	hip_flexion_r	hip_adduction_r	hip_rotation_r	knee_angle_r	ankle_angle_r	subtalar_angle_r	mtp_angle_r	hip_flexion_l	hip_adduction_l	hip_rotation_l	knee_angle_l	ankle_angle_l	subtalar_angle_l	mtp_angle_l	lumbar_extension	lumbar_bending	lumbar_rotation	arm_flex_r	arm_add_r	arm_rot_r	elbow_flex_r	pro_sup_r	wrist_flex_r	wrist_dev_r	arm_flex_l	arm_add_l	arm_rot_l	elbow_flex_l	pro_sup_l	wrist_flex_l	wrist_dev_l
10	1.09647	1.45742	0.564626	0.566468	0.226958	1.06295	0.378253	0.0700487	0.0549322	0.371973	-0.260829	0	0	-0.0749952	-0.152528	-0.366459	0.370993	-0.16434	0	0	-0.409302	0.0813942	-0.0248094	0.547952	-0.479929	0.580091	0.985226	1.07355	0	0	0.169413	-0.368285	0.113943	1.26731	1.43967	0	0
10.01	1.09352	1.46076	0.569793	0.567394	0.231946	1.06225	0.373963	0.0691968	0.0518449	0.374241	-0.266294	0	0	-0.0805447	-0.151092	-0.365237	0.372044	-0.163343	0	0	-0.408244	0.077235	-0.0298987	0.533853	-0.479356	0.575257	0.997316	1.07622	0	0	0.151848	-0.372122	0.104435	1.27992	1.44355	0	0
10.02	1.09538	1.46479	0.57081	0.568188	0.237027	1.06157	0.368327	0.0673032	0.0484517	0.37735	-0.271184	0	0	-0.0864633	-0.149362	-0.36307	0.373869	-0.162296	0	0	-0.407755	0.073346	-0.0351896	0.518908	-0.479133	0.569506	1.01013	1.07925	0	0	0.134742	-0.375721	0.095681	1.29137	1.44721	0	0
10.03	1.09986	1.46911	0.569812	0.56894	0.242274	1.0609	0.361521	0.0646212	0.0448804	0.379394	-0.275498	0	0	-0.0923031	-0.147779	-0.360106	0.376697	-0.161233	0	0	-0.40718	0.0696115	-0.0403369	0.503139	-0.479205	0.563529	1.02282	1.08244	0	0	0.118153	-0.379053	0.0878302	1.30151	1.45109	0	0
10.04	1.10636	1.47376	0.566996	0.569719	0.247666	1.06023	0.353481	0.0617491	0.0413739	0.3796	-0.280929	0	0	-0.0981134	-0.146184	-0.356704	0.380366	-0.160154	0	0	-0.4064	0.0658418	-0.0449864	0.486442	-0.479549	0.556985	1.03542	1.08572	0	0	0.102073	-0.382088	0.0808574	1.31055	1.45534	0	0
10.05	1.11514	1.47851	0.561953	0.570526	0.253164	1.05959	0.345529	0.0585538	0.0377983	0.379324	-0.288023	0	0	-0.103579	-0.144756	-0.352874	0.385138	-0.159122	0	0	-0.405498	0.0623083	-0.0490729	0.468876	-0.480071	0.54956	1.04808	1.08948	0	0	0.086476	-0.384739	0.0746145	1.31859	1.46	0	0
10.06	1.12902	1.48301	0.552088	0.571397	0.258779	1.05903	0.33743	0.0555902	0.0336251	0.378902	-0.294561	0	0	-0.108515	-0.144217	-0.348471	0.391339	-0.158228	0	0	-0.404465	0.0591874	-0.0526666	0.45055	-0.480476	0.541474	1.06037	1.09389	0	0	0.0713238	-0.387126	0.0690374	1.32576	1.46525	0	0
10.07	1.14968	1.48688	0.535814	0.572305	0.264453	1.05858	0.328732	0.0535149	0.02861	0.378025	-0.298362	0	0	-0.112641	-0.144935	-0.343181	0.399074	-0.15751	0	0	-0.403395	0.0569399	-0.0558896	0.431685	-0.480581	0.532678	1.07226	1.09924	0	0	0.0566483	-0.389114	0.0638672	1.33195	1.47128	0	0
10.08	1.17324	1.48982	0.516999	0.573153	0.270042	1.05826	0.319689	0.0524002	0.0230958	0.376144	-0.299833	0	0	-0.115151	-0.14668	-0.33643	0.408504	-0.15694	0	0	-0.402362	0.0556962	-0.0587902	0.41283	-0.480662	0.523575	1.08385	1.10496	0	0	0.0427443	-0.39058	0.0590978	1.33719	1.4777	0	0
10.09	1.19752	1.49172	0.49733	0.574118	0.275513	1.05808	0.312136	0.0524878	0.0166688	0.376713	-0.299779	0	0	-0.115934	-0.149627	-0.328524	0.419603	-0.156672	0	0	-0.401332	0.0552268	-0.0610234	0.393782	-0.480239	0.513518	1.09529	1.11066	0	0	0.0296575	-0.3919	0.05478	1.34143	1.48398	0	0
10.1	1.21457	1.49256	0.483342	0.575369	0.280922	1.05797	0.307807	0.0537615	0.0108915	0.38158	-0.298015	0	0	-0.115187	-0.153258	-0.320879	0.431563	-0.156998	0	0	-0.399823	0.0546225	-0.0615958	0.375038	-0.479309	0.503646	1.10587	1.11654	0	0	0.0169988	-0.393058	0.0506855	1.34491	1.48957	0	0
10.11	1.22744	1.49251	0.4722	0.576794	0.286225	1.05797	0.305931	0.0560955	0.00664076	0.389876	-0.294085	0	0	-0.113522	-0.157282	-0.313045	0.443665	-0.157933	0	0	-0.398156	0.0542042	-0.0606226	0.356871	-0.47824	0.4944	1.11563	1.12334	0	0	0.00502794	-0.393918	0.0469919	1.34761	1.49436	0	0
10.12	1.2355	1.49163	0.465699	0.578173	0.291471	1.05806	0.304727	0.0589942	0.00356037	0.39859	-0.289155	0	0	-0.110048	-0.162047	-0.304932	0.457714	-0.15953	0	0	-0.396081	0.0545068	-0.0591905	0.33882	-0.476997	0.485124	1.12482	1.13121	0	0	-0.00632249	-0.394409	0.0437929	1.34927	1.49869	0	0
10.13	1.23561	1.4903	0.467913	0.579442	0.296727	1.05824	0.302664	0.0617482	0.000759736	0.404675	-0.284285	0	0	-0.104486	-0.167286	-0.295685	0.473813	-0.162207	0	0	-0.393225	0.05506	-0.058214	0.320953	-0.475319	0.475799	1.13281	1.13839	0	0	-0.0171729	-0.395065	0.0412331	1.3501	1.50241	0	0
10.14	1.23769	1.48987	0.466987	0.580868	0.301737	1.05859	0.298826	0.0640511	0.000126114	0.407781	-0.280581	0	0	-0.098605	-0.171838	-0.28739	0.491538	-0.16645	0	0	-0.391355	0.054613	-0.0564268	0.304611	-0.473353	0.467406	1.13979	1.144	0	0	-0.0269263	-0.396043	0.0388607	1.35046	1.50598	0	0
10.15	1.23957	1.49054	0.465399	0.582432	0.306484	1.05913	0.293447	0.0656633	0.00115248	0.407932	-0.278175	0	0	-0.091968	-0.175685	-0.279911	0.5112	-0.172442	0	0	-0.390318	0.0530565	-0.0542716	0.289654	-0.470771	0.459486	1.14574	1.14878	0	0	-0.0357077	-0.397265	0.0363442	1.35044	1.51027	0	0
10.16	1.2359	1.49214	0.469033	0.584156	0.311105	1.05977	0.28712	0.0665463	0.00142074	0.405916	-0.276345	0	0	-0.0840357	-0.17923	-0.272989	0.532825	-0.180286	0	0	-0.389379	0.0502235	-0.0522595	0.275528	-0.467159	0.451702	1.15049	1.1534	0	0	-0.0439041	-0.399041	0.0338014	1.35011	1.5149	0	0
10.17	1.22247	1.49446	0.482002	0.586077	0.315708	1.06047	0.280938	0.0663885	0.000330545	0.403044	-0.275196	0	0	-0.0749612	-0.182602	-0.267055	0.555632	-0.189906	0	0	-0.387987	0.0458002	-0.0503411	0.262	-0.462375	0.444595	1.15372	1.15883	0	0	-0.0518213	-0.401644	0.0314639	1.34949	1.51931	0	0
10.18	1.20332	1.49753	0.500793	0.588053	0.320218	1.06124	0.274923	0.0649632	-0.00280964	0.400012	-0.274693	0	0	-0.0649511	-0.185603	-0.261002	0.579261	-0.200868	0	0	-0.386692	0.040355	-0.0491393	0.249325	-0.456539	0.438066	1.15575	1.16451	0	0	-0.0593935	-0.404908	0.0291687	1.34856	1.5239	0	0
10.19	1.19578	1.5016	0.510189	0.589724	0.324347	1.06224	0.267454	0.0620686	-0.00973331	0.39617	-0.274756	0	0	-0.0542692	-0.188044	-0.250997	0.603927	-0.21254	0	0	-0.38732	0.0352808	-0.0501293	0.238441	-0.450438	0.43243	1.1571	1.16966	0	0	-0.0655991	-0.408417	0.0270659	1.34746	1.52867	0	0
10.2	1.19281	1.50624	0.516064	0.591221	0.328193	1.06335	0.258849	0.0587309	-0.0179212	0.391262	-0.274874	0	0	-0.0428745	-0.18976	-0.238851	0.629031	-0.224882	0	0	-0.389078	0.0302236	-0.0520818	0.228801	-0.444518	0.427684	1.1581	1.17416	0	0	-0.0708545	-0.411924	0.0251525	1.34635	1.5333	0	0
10.21	1.18563	1.51126	0.526345	0.592605	0.331868	1.06446	0.250246	0.0546996	-0.0264546	0.386267	-0.275069	0	0	-0.0309675	-0.190661	-0.226648	0.653985	-0.23754	0	0	-0.391069	0.0249779	-0.0544774	0.219675	-0.43859	0.42309	1.15899	1.17817	0	0	-0.075766	-0.415329	0.0232504	1.34514	1.53774	0	0
10.22	1.16299	1.51657	0.553278	0.593788	0.335505	1.06547	0.241772	0.0492931	-0.0368754	0.380614	-0.275076	0	0	-0.0179765	-0.190318	-0.213417	0.678774	-0.249014	0	0	-0.392413	0.0194323	-0.0581896	0.210507	-0.432552	0.418693	1.15963	1.18121	0	0	-0.0807825	-0.418879	0.0214124	1.34395	1.54177	0	0
10.23	1.12496	1.52225	0.596351	0.594837	0.339088	1.06641	0.232944	0.0428305	-0.0481621	0.373923	-0.275069	0	0	-0.00463299	-0.188799	-0.200081	0.703212	-0.258378	0	0	-0.393688	0.0134303	-0.0629214	0.201483	-0.426463	0.414526	1.16035	1.18294	0	0	-0.0860536	-0.422526	0.0191447	1.34319	1.54575	0	0
10.24	1.09765	1.52788	0.627376	0.595923	0.342478	1.06743	0.223215	0.0373689	-0.0564359	0.366766	-0.275446	0	0	0.0073249	-0.18771	-0.190409	0.727082	-0.265228	0	0	-0.397107	0.0075688	-0.0663429	0.193327	-0.42171	0.411034	1.16272	1.18254	0	0	-0.0911351	-0.425381	0.0156546	1.34366	1.54977	0	0
10.25	1.64532	1.52895	0.0182636	0.603087	0.339944	1.07158	0.212789	0.0630955	0.0374602	0.381216	-0.281262	0	0	-0.0191245	-0.201368	-0.257683	0.744836	-0.269167	0	0	-0.439947	-0.00217554	-0.0160378	0.219558	-0.436463	0.427643	1.17746	1.1755	0	0	-0.0867639	-0.41351	-0.00214558	1.35488	1.55115	0	0
10.26	1.03381	1.53876	0.698833	0.597579	0.348859	1.06954	0.203396	0.0267356	-0.0770311	0.352925	-0.274344	0	0	0.0304641	-0.185015	-0.177095	0.771513	-0.26578	0	0	-0.403385	-0.00217396	-0.074177	0.179764	-0.412751	0.406525	1.16419	1.18226	0	0	-0.10022	-0.430699	0.0109872	1.34158	1.55301	0	0
10.27	0.945901	1.54429	0.790977	0.598155	0.351969	1.07041	0.194679	0.0200118	-0.0896752	0.346779	-0.275567	0	0	0.0421907	-0.181957	-0.171916	0.791248	-0.248274	0	0	-0.405635	-0.0070071	-0.0741629	0.163987	-0.405034	0.386989	1.16765	1.21125	0	0	-0.0990234	-0.434188	0.0168618	1.33715	1.55348	0	0
10.28	0.892035	1.54928	0.847583	0.598763	0.354923	1.07155	0.184758	0.0154785	-0.0989705	0.339392	-0.277186	0	0	0.0516762	-0.18058	-0.171006	0.80691	-0.236598	0	0	-0.410225	-0.0108668	-0.0758342	0.156087	-0.401332	0.381428	1.16979	1.21471	0	0	-0.101691	-0.435675	0.0159639	1.33581	1.55719	0	0
10.29	0.860024	1.55336	0.881618	0.599327	0.357714	1.07286	0.174848	0.0127922	-0.107548	0.331643	-0.278716	0	0	0.0602085	-0.180098	-0.171938	0.818397	-0.224935	0	0	-0.415513	-0.0135849	-0.076279	0.149195	-0.398516	0.376837	1.17147	1.21759	0	0	-0.103591	-0.436365	0.0154444	1.33394	1.56209	0	0
10.3	0.705521	1.55705	1.0374	0.599902	0.360398	1.0739	0.166906	0.00933214	-0.113695	0.325303	-0.279133	0	0	0.0689735	-0.178411	-0.174817	0.826262	-0.214688	0	0	-0.419547	-0.0174226	-0.0764683	0.142243	-0.396069	0.373056	1.17339	1.21948	0	0	-0.105557	-0.437153	0.0150265	1.33233	1.56605	0	0
10.31	0.466886	1.56	1.27559	0.600595	0.362883	1.07488	0.159838	0.00656981	-0.115274	0.31976	-0.278881	0	0	0.0769685	-0.177123	-0.180585	0.830199	-0.207651	0	0	-0.424735	-0.0216113	-0.0749748	0.135675	-0.394728	0.369496	1.17703	1.2191	0	0	-0.10718	-0.437414	0.0137293	1.33212	1.5695	0	0
10.32	2.52008	1.55649	-0.84918	0.608493	0.359117	1.07868	0.158906	0.0305987	0.000584697	0.342372	-0.282591	0	0	0.0463521	-0.193887	-0.264483	0.824091	-0.201714	0	0	-0.467953	-0.0356035	-0.0155625	0.159796	-0.412053	0.377787	1.19681	1.21853	0	0	-0.0981599	-0.423434	-0.00162754	1.34439	1.5708	0	0
10.33	2.80305	1.5587	-1.13338	0.609313	0.361461	1.07946	0.153979	0.0271232	0.0013277	0.337784	-0.282151	0	0	0.0541876	-0.191688	-0.26848	0.818989	-0.199266	0	0	-0.470152	-0.0405584	-0.0180017	0.159557	-0.411051	0.38382	1.19605	1.20859	0	0	-0.104118	-0.423933	-0.00709574	1.34496	1.5708	0	0
10.34	-3.09793	1.56015	-1.51675	0.610081	0.363747	1.08015	0.149363	0.0237045	0.00318835	0.332795	-0.28204	0	0	0.0621021	-0.188671	-0.271062	0.809673	-0.195451	0	0	-0.472069	-0.045647	-0.0171493	0.153481	-0.408672	0.379571	1.1981	1.21117	0	0	-0.106203	-0.424678	-0.0079304	1.34391	1.5708	0	0
10.35	-2.66397	1.5601	-1.95178	0.610808	0.365993	1.08075	0.145148	0.0204666	0.00534004	0.328141	-0.281367	0	0	0.0699278	-0.185181	-0.271726	0.796614	-0.19402	0	0	-0.473391	-0.0506731	-0.0162139	0.147083	-0.40606	0.37475	1.20007	1.2154	0	0	-0.108196	-0.425201	-0.00872789	1.34277	1.5708	0	0
10.36	-2.26555	1.55846	-2.35107	0.611441	0.368164	1.08124	0.142063	0.0166222	0.00718804	0.324321	-0.280504	0	0	0.0781886	-0.181257	-0.271454	0.780766	-0.194957	0	0	-0.474192	-0.0557842	-0.0154489	0.140587	-0.403391	0.369741	1.20199	1.22062	0	0	-0.110056	-0.425684	-0.00941115	1.34179	1.5708	0	0
10.37	-1.96532	1.55567	-2.65224	0.611985	0.370256	1.08165	0.139822	0.0124908	0.00937245	0.320491	-0.28	0	0	0.0870139	-0.177237	-0.270896	0.763179	-0.197812	0	0	-0.474441	-0.0607425	-0.0146621	0.134221	-0.400903	0.365258	1.20366	1.22594	0	0	-0.111747	-0.426168	-0.0096884	1.34073	1.5708	0	0
10.38	-1.73717	1.55198	-2.88126	0.612448	0.372293	1.08194	0.138276	0.00814896	0.011629	0.316923	-0.278607	0	0	0.0962566	-0.172787	-0.270001	0.743848	-0.204723	0	0	-0.473734	-0.0657708	-0.0103578	0.122872	-0.397769	0.353001	1.20732	1.23891	0	0	-0.109026	-0.427348	-0.00393812	1.33708	1.5708	0	0
10.39	-1.62351	1.54802	-2.99509	0.612704	0.374216	1.08226	0.135724	0.00405949	0.0122831	0.312929	-0.278317	0	0	0.105108	-0.16886	-0.269625	0.724893	-0.209246	0	0	-0.473948	-0.0699112	-0.0119522	0.119395	-0.395974	0.3526	1.20777	1.24223	0	0	-0.11254	-0.42722	-0.0066299	1.33718	1.5708	0	0
10.4	-1.54629	1.54372	-3.07195	0.612796	0.376094	1.08257	0.133071	-0.00046141	0.0119266	0.308822	-0.27769	0	0	0.113715	-0.164394	-0.26926	0.706079	-0.21585	0	0	-0.474156	-0.0739287	-0.0136555	0.115166	-0.394123	0.350548	1.20871	1.24556	0	0	-0.11538	-0.42726	-0.00828851	1.33687	1.5708	0	0
